<svg xmlns="http://www.w3.org/2000/svg" width="18px" height="18px" viewBox="0 0 18 18">
	<path fillRule="evenodd"
	      d="M 15.88 9.88C 15.92 9.59 15.95 9.31 15.95 9 15.95 8.69 15.92 8.41 15.88 8.12 15.88 8.12 17.83 6.63 17.83 6.63 18.01 6.5 18.06 6.26 17.95 6.06 17.95 6.06 16.09 2.94 16.09 2.94 15.98 2.74 15.73 2.67 15.53 2.74 15.53 2.74 13.22 3.64 13.22 3.64 12.74 3.28 12.22 2.99 11.66 2.76 11.66 2.76 11.31 0.38 11.31 0.38 11.28 0.16 11.08-0 10.85-0 10.85-0 7.15-0 7.15-0 6.92-0 6.72 0.16 6.69 0.38 6.69 0.38 6.34 2.76 6.34 2.76 5.78 2.99 5.26 3.29 4.78 3.64 4.78 3.64 2.47 2.74 2.47 2.74 2.26 2.66 2.02 2.74 1.91 2.94 1.91 2.94 0.05 6.06 0.05 6.06-0.07 6.26-0.01 6.5 0.17 6.63 0.17 6.63 2.12 8.12 2.12 8.12 2.08 8.41 2.05 8.7 2.05 9 2.05 9.3 2.08 9.59 2.12 9.88 2.12 9.88 0.17 11.37 0.17 11.37-0.01 11.5-0.06 11.74 0.05 11.94 0.05 11.94 1.91 15.06 1.91 15.06 2.02 15.26 2.27 15.33 2.47 15.26 2.47 15.26 4.78 14.36 4.78 14.36 5.26 14.71 5.78 15.01 6.34 15.24 6.34 15.24 6.69 17.62 6.69 17.62 6.72 17.84 6.92 18 7.15 18 7.15 18 10.85 18 10.85 18 11.08 18 11.28 17.84 11.31 17.62 11.31 17.62 11.66 15.24 11.66 15.24 12.22 15.01 12.74 14.71 13.22 14.36 13.22 14.36 15.53 15.26 15.53 15.26 15.74 15.34 15.98 15.26 16.09 15.06 16.09 15.06 17.95 11.94 17.95 11.94 18.06 11.74 18.01 11.5 17.83 11.37 17.83 11.37 15.88 9.88 15.88 9.88ZM 9 12.15C 7.21 12.15 5.76 10.74 5.76 9 5.76 7.26 7.21 5.85 9 5.85 10.79 5.85 12.24 7.26 12.24 9 12.24 10.74 10.79 12.15 9 12.15Z"/>
</svg>