<svg version="1.1" id="Слой_1" xmlns="http://www.w3.org/2000/svg" xmlns:xlink="http://www.w3.org/1999/xlink" x="0px" y="0px"
	 width="19.986px" height="19.986px" viewBox="0 0 19.986 19.986" enable-background="new 0 0 19.986 19.986" xml:space="preserve">
<path d="M14.235,7.163l-1.414-1.414L9.993,8.578L7.164,5.749L5.75,7.163l2.829,2.829L5.75,12.82l1.414,1.414l2.829-2.828
	l2.828,2.828l1.414-1.414l-2.828-2.828L14.235,7.163z M17.064,2.922c-3.896-3.896-10.246-3.896-14.143,0
	c-3.896,3.896-3.896,10.245,0,14.143c3.896,3.896,10.245,3.896,14.143,0C20.961,13.167,20.96,6.817,17.064,2.922z M4.336,15.649
	c-3.118-3.119-3.118-8.196,0-11.313c3.118-3.119,8.195-3.119,11.314,0c3.118,3.117,3.118,8.194,0,11.313
	C12.531,18.767,7.454,18.767,4.336,15.649z"/>
</svg>
