<svg xmlns="http://www.w3.org/2000/svg" xmlns:xlink="http://www.w3.org/1999/xlink" width="13px" height="16px" viewBox="0 0 17 20">
<path fill-rule="evenodd"  fill="rgb(153, 153, 153)"
 d="M8.129,-0.000 L1.626,-0.000 C0.731,-0.000 0.008,0.705 0.008,1.567 L-0.000,14.101 C-0.000,14.962 0.723,15.667 1.618,15.667 L11.380,15.667 C12.274,15.667 13.006,14.962 13.006,14.101 L13.006,4.700 L8.129,-0.000 ZM9.755,12.534 L3.251,12.534 L3.251,10.967 L9.755,10.967 L9.755,12.534 ZM9.755,9.400 L3.251,9.400 L3.251,7.834 L9.755,7.834 L9.755,9.400 ZM7.316,5.484 L7.316,1.175 L11.787,5.484 L7.316,5.484 Z"/>
</svg>