<svg version="1.1" id="Слой_1" xmlns="http://www.w3.org/2000/svg" xmlns:xlink="http://www.w3.org/1999/xlink" x="0px" y="0px"
	 width="18.093px" height="18.393px" viewBox="0 0 18.093 18.393" enable-background="new 0 0 18.093 18.393" xml:space="preserve">
<path fill="none" d="M0,0h24v24H0V0z"/>
<g>
	<path d="M18.092,7.276h-6.813l2.754-2.882C11.289,1.635,6.844,1.532,4.1,4.292c-2.745,2.769-2.745,7.233,0,10.003
		c2.744,2.77,7.188,2.77,9.933,0c1.367-1.369,2.051-2.975,2.051-4.996h2.011c0,2.021-0.885,4.648-2.654,6.428
		c-3.528,3.555-9.259,3.555-12.787,0c-3.52-3.547-3.55-9.31-0.021-12.856c3.528-3.546,9.188-3.546,12.716,0L18.092,0V7.276z
		 M9.549,5.109v4.343l3.519,2.126l-0.726,1.236L8.04,10.218V5.109H9.549z"/>
</g>
</svg>
