<svg version="1.1" id="Слой_1" xmlns="http://www.w3.org/2000/svg" xmlns:xlink="http://www.w3.org/1999/xlink" x="0px" y="0px"
	 width="24px" height="24px" viewBox="0 0 24 24" enable-background="new 0 0 24 24" xml:space="preserve">
<path d="M19,19H5V8h14 M19,3h-1V1h-2v2H8V1H6v2H5C3.89,3,3,3.9,3,5v14c0,1.104,0.896,2,2,2h14c1.104,0,2-0.896,2-2V5
	C21,3.896,20.104,3,19,3z"/>
<g>
	<path d="M9.65,17.244H8.136v-6.253H6.57v-1.16l3.08-0.271V17.244z"/>
	<path d="M17.313,17.244H12.23v-0.993l2.346-2.653c0.35-0.412,0.6-0.763,0.747-1.049c0.147-0.285,0.221-0.548,0.221-0.788
		c0-0.312-0.078-0.562-0.234-0.749c-0.155-0.187-0.39-0.281-0.702-0.281c-0.33,0-0.584,0.12-0.765,0.359s-0.271,0.543-0.271,0.911
		h-1.477l-0.011-0.031c-0.018-0.673,0.205-1.243,0.666-1.709c0.462-0.466,1.081-0.699,1.857-0.699c0.777,0,1.38,0.199,1.811,0.595
		c0.43,0.397,0.646,0.931,0.646,1.6c0,0.455-0.121,0.869-0.362,1.244c-0.241,0.374-0.656,0.893-1.246,1.555l-1.248,1.499l0.01,0.025
		h3.096V17.244z"/>
</g>
</svg>
