<svg version="1.1" id="Слой_1" xmlns="http://www.w3.org/2000/svg" xmlns:xlink="http://www.w3.org/1999/xlink" x="0px" y="0px"
	 width="22.502px" height="22.67px" viewBox="3 -1.67 22.502 22.67" enable-background="new 3 -1.67 22.502 22.67"
	 xml:space="preserve">
<g>
	<path d="M19,19H5V5h7l2.167-2H5C3.89,3,3,3.9,3,5v14c0,1.1,0.89,2,2,2h14c1.1,0,2-0.9,2-2V9.833L19,12V19z"/>
	<path d="M7.5,12.583v3.749h3.75L22.311,5.273l-3.75-3.75L7.5,12.583z M25.21,2.373c0.39-0.39,0.39-1.02,0-1.41l-2.34-2.34
		c-0.39-0.39-1.021-0.39-1.41,0l-1.83,1.83l3.75,3.75L25.21,2.373z"/>
</g>
</svg>
