<svg xmlns="http://www.w3.org/2000/svg"
     width="20px" height="18px" viewBox="0 0 20 18">
	<path fillRule="evenodd"
	      d="M 15.06 14C 15.06 14 13.66 12.59 13.66 12.59 13.66 12.59 16.22 10 16.22 10 16.22 10 6.64 10 6.64 10 6.64 10 6.64 8 6.64 8 6.64 8 16.22 8 16.22 8 16.22 8 13.66 5.41 13.66 5.41 13.66 5.41 15.06 4 15.06 4 15.06 4 20.01 9 20.01 9 20.01 9 15.06 14 15.06 14ZM 10.76 2C 10.76 2 1.97 2 1.97 2 1.97 2 1.97 16 1.97 16 1.97 16 10.76 16 10.76 16 10.76 16 10.76 14.19 10.76 14.19 10.76 14.19 12.74 14.19 12.74 14.19 12.74 14.19 12.74 16 12.74 16 12.74 17.1 11.86 18 10.76 18 10.76 18 1.97 18 1.97 18 0.88 18-0.01 17.1-0.01 16-0.01 16-0.01 2-0.01 2-0.01 0.9 0.88-0 1.97-0 1.97-0 10.76-0 10.76-0 11.86-0 12.74 0.9 12.74 2 12.74 2 12.74 3.81 12.74 3.81 12.74 3.81 10.76 3.81 10.76 3.81 10.76 3.81 10.76 2 10.76 2Z"/>
</svg>